<svg width="48" height="35" viewBox="0 0 48 35" fill="none" xmlns="http://www.w3.org/2000/svg">
<path d="M29 34H40.4409C41.1039 34 41.7424 33.7761 42.2284 33.3732C42.7144 32.9703 43.012 32.4182 43.0615 31.8275L46 7" stroke="#F72D57" stroke-width="2" stroke-miterlimit="10" stroke-linecap="round"/>
<path d="M38 7L39.2698 2.2L43 1" stroke="#F72D57" stroke-width="2" stroke-linecap="round" stroke-linejoin="round"/>
<path d="M26 7L47 7" stroke="#F72D57" stroke-width="2" stroke-miterlimit="10" stroke-linecap="round"/>
<path d="M23.75 25.25L29.6632 19.3368C30.008 18.9921 30.4173 18.7187 30.8677 18.5323C31.3181 18.3458 31.8008 18.2499 32.2882 18.25H32.5C33.4283 18.25 34.3185 18.6187 34.9749 19.2751C35.6313 19.9315 36 20.8217 36 21.75C36 22.6783 35.6313 23.5685 34.9749 24.2249C34.3185 24.8813 33.4283 25.25 32.5 25.25H4.5C3.57174 25.25 2.6815 24.8813 2.02513 24.2249C1.36875 23.5685 1 22.6783 1 21.75C1 20.8217 1.36875 19.9315 2.02513 19.2751C2.6815 18.6187 3.57174 18.25 4.5 18.25H12.4013C15.1855 18.2501 17.8558 19.3561 19.8247 21.3247L23.75 25.25ZM2.75 25.25H34.25V28.75C34.25 30.1424 33.6969 31.4777 32.7123 32.4623C31.7277 33.4469 30.3924 34 29 34H8C6.60761 34 5.27226 33.4469 4.28769 32.4623C3.30312 31.4777 2.75 30.1424 2.75 28.75V25.25Z" stroke="#F72D57" stroke-width="2" stroke-linecap="round" stroke-linejoin="round"/>
<path d="M18.5017 13H18.5M18.5 6C10.4097 6 3.74398 9.073 2.85148 16.5C2.73598 17.4625 3.53398 18.25 4.49998 18.25H32.5C33.466 18.25 34.264 17.4625 34.1485 16.5C33.256 9.073 26.5902 6 18.5 6ZM9.75173 13H9.74998H9.75173ZM23.7517 11.25H23.75H23.7517Z" stroke="#F72D57" stroke-width="2" stroke-linecap="round" stroke-linejoin="round"/>
</svg>
