<svg width="39" height="40" viewBox="0 0 39 40" fill="none" xmlns="http://www.w3.org/2000/svg">
<path d="M33.1181 7.85623C28.8818 6.13029 24.4363 5.3833 19.5334 5.3833C14.6304 5.3833 9.84438 6.20518 5.93591 7.8197C5.19805 8.12106 4.54237 8.64158 5.01632 9.60043C5.40078 10.3794 14.6934 30.8614 18.2239 38.167C18.3428 38.4138 18.5289 38.622 18.7609 38.7677C18.9929 38.9135 19.2613 38.9908 19.5352 38.9908C19.8092 38.9908 20.0775 38.9135 20.3095 38.7677C20.5415 38.622 20.7276 38.4138 20.8466 38.167L34.0011 9.65523C34.2924 9.02512 34.0833 8.24891 33.1181 7.85623V7.85623Z" stroke="white" stroke-width="2" stroke-miterlimit="10"/>
<path d="M36.0056 4.16696C31.2506 2.28578 25.3934 1 19.5334 1C13.6734 1 7.90385 2.16706 3.04839 4.11217C2.6201 4.2875 1.8174 4.69205 2.03748 5.37238L2.92146 7.575C3.28673 8.32382 3.7132 8.32382 4.29673 8.32382C4.46019 8.32382 4.68849 8.2325 4.96153 8.12475C9.60813 6.3199 14.5486 5.39045 19.5334 5.38334C24.7167 5.38334 30.0269 6.47917 34.108 8.12292C34.4358 8.25077 34.6184 8.322 34.7728 8.322C35.3737 8.322 35.7207 8.52199 36.1426 7.58231L37.0348 5.38334C37.2183 4.83542 36.5791 4.39526 36.0056 4.16696Z" stroke="white" stroke-width="2" stroke-miterlimit="10"/>
<path d="M13.6889 17.0722C15.3028 17.0722 16.6111 15.7639 16.6111 14.15C16.6111 12.5361 15.3028 11.2278 13.6889 11.2278C12.075 11.2278 10.7667 12.5361 10.7667 14.15C10.7667 15.7639 12.075 17.0722 13.6889 17.0722Z" fill="white"/>
<path d="M25.3778 18.5334C26.9917 18.5334 28.3 17.2251 28.3 15.6112C28.3 13.9973 26.9917 12.689 25.3778 12.689C23.7639 12.689 22.4555 13.9973 22.4555 15.6112C22.4555 17.2251 23.7639 18.5334 25.3778 18.5334Z" fill="white"/>
<path d="M19.5333 28.7612C21.1472 28.7612 22.4556 27.4529 22.4556 25.839C22.4556 24.2251 21.1472 22.9167 19.5333 22.9167C17.9194 22.9167 16.6111 24.2251 16.6111 25.839C16.6111 27.4529 17.9194 28.7612 19.5333 28.7612Z" fill="white"/>
</svg>
