<svg width="35" height="35" viewBox="0 0 35 35" fill="none" xmlns="http://www.w3.org/2000/svg">
<path d="M10.7691 6.19732C11.4423 4.95272 12.4472 3.91903 13.6723 3.211C14.8974 2.50298 16.2947 2.14832 17.7091 2.18639C19.1236 2.22446 20.4998 2.65378 21.685 3.42668C22.8702 4.19958 23.8181 5.28583 24.4234 6.56485C22.8301 6.60102 21.2818 7.10045 19.9676 8.00214C18.6535 8.90383 17.6303 10.1688 17.0231 11.6424C16.4636 10.7094 15.793 9.84775 15.0259 9.07628C13.7934 7.86626 12.3509 6.8907 10.7691 6.19732ZM32.795 15.3133C32.9196 13.4462 32.4026 11.5926 31.3297 10.0596C30.2567 8.52658 28.6921 7.40625 26.8953 6.88425C26.3057 5.01622 25.1725 3.36645 23.6405 2.14583C22.1085 0.925209 20.2474 0.189182 18.295 0.0318315C16.3426 -0.125518 14.3876 0.302957 12.68 1.26249C10.9723 2.22202 9.58954 3.66902 8.70844 5.41852C7.8382 5.148 6.95202 4.93173 6.055 4.77097C4.53772 4.49789 2.9985 4.36534 1.45687 4.37501C1.32265 4.37745 1.18847 4.38183 1.05438 4.38813H1.04562C0.778208 4.40423 0.525948 4.51772 0.336514 4.70717C0.147079 4.89662 0.0335927 5.1489 0.0174998 5.41633V5.41852C-0.000598486 5.9091 -0.00132795 6.40018 0.0153124 6.89081C0.0437499 7.78556 0.137812 9.02815 0.391562 10.4326C0.660625 11.9246 1.11563 13.6354 1.89 15.3111H1.09375C0.803669 15.3111 0.52547 15.4263 0.320352 15.6315C0.115234 15.8366 0 16.1148 0 16.4049V17.4988C0 22.1404 1.84374 26.5919 5.12563 29.874C8.40752 33.1561 12.8587 35 17.5 35C22.1413 35 26.5925 33.1561 29.8744 29.874C33.1563 26.5919 35 22.1404 35 17.4988V16.4049C35 16.1148 34.8848 15.8366 34.6796 15.6315C34.4745 15.4263 34.1963 15.3111 33.9062 15.3111H32.795V15.3133ZM4.34 15.3133C3.39062 13.6025 2.84812 11.7277 2.54625 10.0454C2.33965 8.89668 2.22118 7.73383 2.19188 6.56704L2.44125 6.57579C3.255 6.60423 4.38813 6.69173 5.66563 6.92363C8.24687 7.3896 11.2787 8.42217 13.4794 10.623C14.8269 11.9705 15.7391 13.6332 16.3516 15.3133H12.4862L8.43062 11.2574C8.32893 11.1558 8.20823 11.0753 8.07542 11.0204C7.94261 10.9655 7.80028 10.9373 7.65657 10.9374C7.51286 10.9375 7.37057 10.9659 7.23784 11.021C7.1051 11.0761 6.98452 11.1568 6.88297 11.2585C6.78142 11.3602 6.7009 11.4809 6.64599 11.6137C6.59109 11.7465 6.56288 11.8889 6.56298 12.0326C6.56309 12.1763 6.59149 12.3186 6.64658 12.4513C6.70168 12.5841 6.78237 12.7047 6.88406 12.8062L9.39313 15.3133H4.34ZM18.6637 15.3133C18.6444 15.2541 18.6247 15.195 18.6047 15.1361C18.5571 14.3108 18.6801 13.4845 18.966 12.7088C19.2519 11.9331 19.6946 11.2247 20.2665 10.6278C20.8384 10.0308 21.5271 9.55814 22.2898 9.23924C23.0524 8.92033 23.8726 8.76205 24.6992 8.77425C25.5257 8.78646 26.3409 8.9689 27.0938 9.31019C27.8467 9.65147 28.5212 10.1443 29.0752 10.7579C29.6292 11.3714 30.0507 12.0926 30.3136 12.8764C30.5765 13.6602 30.6751 14.4897 30.6031 15.3133H18.6659H18.6637ZM2.1875 17.5009H32.8125C32.8125 19.0214 32.5916 20.4893 32.1781 21.8763H2.82187C2.39994 20.4562 2.18626 18.9824 2.1875 17.5009ZM17.5 32.8145C14.6018 32.8151 11.7629 31.9932 9.3133 30.4441C6.8637 28.8951 4.90397 26.6827 3.66188 24.0639H31.3381C30.096 26.6827 28.1363 28.8951 25.6867 30.4441C23.2371 31.9932 20.3982 32.8151 17.5 32.8145Z" fill="#F72D57"/>
</svg>
