<svg width="43" height="43" viewBox="0 0 43 43" fill="none" xmlns="http://www.w3.org/2000/svg">
<g clip-path="url(#clip0_1_272)">
<path d="M15.9219 38.2222C17.4061 38.2222 18.6094 37.0189 18.6094 35.5347C18.6094 34.0504 17.4061 32.8472 15.9219 32.8472C14.4376 32.8472 13.2344 34.0504 13.2344 35.5347C13.2344 37.0189 14.4376 38.2222 15.9219 38.2222Z" fill="#3F3F3F"/>
<path d="M32.2499 38.2222C33.7342 38.2222 34.9374 37.0189 34.9374 35.5347C34.9374 34.0504 33.7342 32.8472 32.2499 32.8472C30.7657 32.8472 29.5624 34.0504 29.5624 35.5347C29.5624 37.0189 30.7657 38.2222 32.2499 38.2222Z" fill="#3F3F3F"/>
<path d="M39.5122 6.41406C39.401 6.27704 39.2609 6.16634 39.1019 6.08993C38.9428 6.01352 38.7689 5.97328 38.5924 5.97211H13.7241L14.5005 8.361H37.0277L33.8385 22.6943H15.9219L10.4633 5.41072C10.4042 5.22733 10.3017 5.06093 10.1644 4.92574C10.0272 4.79055 9.85922 4.69057 9.67494 4.63433L4.77772 3.12933C4.62713 3.08306 4.46891 3.0669 4.31208 3.08178C4.15526 3.09665 4.00289 3.14227 3.8637 3.21603C3.58257 3.36499 3.37214 3.61952 3.27869 3.92364C3.18524 4.22775 3.21642 4.55654 3.36538 4.83766C3.51434 5.11878 3.76888 5.32922 4.07299 5.42267L8.36105 6.73656L13.8435 24.056L11.8847 25.6566L11.7294 25.8118C11.2448 26.3702 10.9702 27.0801 10.9528 27.8192C10.9353 28.5583 11.1762 29.2804 11.6338 29.861C11.9594 30.2569 12.3731 30.5711 12.8418 30.7785C13.3106 30.986 13.8213 31.0808 14.3333 31.0554H34.2686C34.5853 31.0554 34.8891 30.9296 35.1131 30.7056C35.3372 30.4816 35.463 30.1778 35.463 29.861C35.463 29.5442 35.3372 29.2404 35.1131 29.0164C34.8891 28.7924 34.5853 28.6666 34.2686 28.6666H14.1422C14.0046 28.6619 13.8706 28.6218 13.7531 28.5502C13.6356 28.4786 13.5385 28.3778 13.4712 28.2578C13.404 28.1377 13.3689 28.0023 13.3692 27.8647C13.3696 27.727 13.4054 27.5918 13.4733 27.4721L16.3519 25.0832H34.7941C35.0702 25.09 35.3401 25.0008 35.5579 24.831C35.7757 24.6611 35.9279 24.421 35.9885 24.1516L39.7749 7.42933C39.8113 7.25126 39.8065 7.06725 39.7609 6.89131C39.7154 6.71537 39.6303 6.55214 39.5122 6.41406Z" fill="#3F3F3F"/>
</g>
<defs>
<clipPath id="clip0_1_272">
<rect width="43" height="43" fill="white"/>
</clipPath>
</defs>
</svg>
